<?xml version="1.0" standalone="no"?>
<!DOCTYPE svg PUBLIC "-//W3C//DTD SVG 20010904//EN"
 "http://www.w3.org/TR/2001/REC-SVG-20010904/DTD/svg10.dtd">
<svg version="1.0" xmlns="http://www.w3.org/2000/svg"
 width="512.000000pt" height="512.000000pt" viewBox="0 0 512.000000 512.000000"
 preserveAspectRatio="xMidYMid meet">
<metadata>
Created by potrace 1.14, written by Peter Selinger 2001-2017
</metadata>
<g transform="translate(0.000000,512.000000) scale(0.100000,-0.100000)"
fill="#000000" stroke="none">
<path d="M2565 4691 c-11 -5 -60 -14 -109 -20 -49 -7 -101 -18 -115 -25 -14
-8 -41 -17 -60 -21 -47 -10 -223 -87 -251 -110 -8 -7 -26 -16 -39 -20 -23 -7
-115 -69 -167 -112 -12 -10 -35 -27 -50 -38 -39 -27 -160 -149 -210 -210 -144
-179 -261 -407 -309 -605 -9 -36 -21 -85 -27 -110 -6 -26 -11 -147 -11 -285
-1 -204 2 -249 17 -300 10 -33 24 -85 31 -115 19 -83 44 -145 112 -285 40 -82
116 -203 160 -255 122 -143 122 -142 85 -215 -10 -19 -15 -58 -15 -110 0 -66
5 -91 27 -140 15 -33 34 -67 42 -76 21 -23 29 -102 13 -115 -17 -14 -219 -50
-319 -58 -41 -4 -97 -13 -124 -21 -27 -8 -70 -15 -95 -15 -25 -1 -82 -8 -126
-16 -85 -16 -306 -49 -440 -65 -44 -6 -110 -17 -146 -25 -37 -8 -110 -18 -164
-23 -53 -4 -101 -13 -108 -20 -7 -7 -11 -34 -10 -61 2 -49 39 -187 51 -194 10
-5 332 39 537 74 61 10 144 21 185 25 41 3 100 12 130 20 30 8 104 19 163 25
60 6 118 15 130 20 12 5 68 14 124 19 56 6 123 16 148 23 75 20 75 22 75 -311
0 -244 3 -296 19 -356 33 -130 109 -217 231 -266 89 -36 191 -40 259 -9 24 11
48 20 53 20 13 0 89 59 106 82 7 9 19 23 26 31 8 7 27 38 43 68 28 53 28 57
31 254 3 137 8 202 15 207 7 4 141 8 298 8 217 0 289 -3 297 -12 6 -8 12 -95
14 -203 l4 -190 32 -56 c77 -133 197 -207 339 -209 69 0 171 28 216 61 40 29
108 104 127 139 45 85 45 81 45 570 0 256 4 471 8 478 11 16 32 15 50 -3 13
-13 76 -34 154 -52 33 -8 161 25 209 53 23 14 62 42 86 63 56 50 121 65 483
112 218 28 224 31 204 127 -6 31 -15 75 -19 97 -13 68 -20 78 -49 70 -14 -3
-57 -11 -96 -16 -84 -12 -184 -28 -245 -39 -78 -15 -177 -12 -194 6 -9 8 -16
22 -16 29 0 22 -51 98 -95 142 -55 55 -156 163 -178 190 -16 20 -16 24 0 65 9
24 25 54 35 67 10 13 18 33 18 44 0 11 9 34 19 51 10 17 22 47 26 66 4 19 11
40 15 45 9 11 47 153 62 230 12 66 12 457 0 515 -20 89 -54 215 -62 225 -4 6
-11 26 -15 45 -4 19 -16 51 -26 70 -11 19 -19 42 -19 50 0 9 -7 26 -16 39 -9
13 -29 47 -45 76 -15 29 -42 73 -59 97 -17 23 -42 60 -55 80 -14 20 -64 78
-112 128 -138 145 -274 245 -443 327 -151 73 -171 81 -225 93 -27 6 -54 15
-60 20 -6 5 -56 17 -110 26 -109 19 -484 30 -520 15z m1082 -1811 c-12 -160
-94 -325 -226 -458 -115 -116 -243 -189 -415 -237 -85 -24 -117 -28 -235 -28
-142 -1 -245 18 -349 64 -23 10 -49 19 -57 19 -7 0 -20 6 -27 13 -7 7 -26 18
-42 25 -47 21 -137 95 -204 168 -83 91 -89 98 -97 123 -3 11 -12 27 -18 33
-38 39 -120 339 -99 360 12 12 145 -6 197 -28 17 -7 77 -18 134 -24 57 -6 114
-15 128 -21 78 -29 762 -29 863 1 19 6 79 15 132 21 53 5 112 16 130 23 18 8
56 17 83 21 28 3 57 10 65 15 9 5 20 4 28 -3 11 -9 13 -29 9 -87z"/>
<path d="M3011 2663 c-27 -19 -28 -68 -2 -83 26 -14 64 -13 79 2 16 16 15 63
0 75 -24 18 -57 21 -77 6z"/>
<path d="M2451 2652 c-11 -21 -4 -63 13 -74 17 -12 61 -9 74 4 7 7 12 24 12
38 0 35 -17 50 -57 50 -21 0 -36 -6 -42 -18z"/>
</g>
</svg>
